<svg width="18" height="15" viewBox="0 0 18 15" fill="none" xmlns="http://www.w3.org/2000/svg">
<path d="M0.666656 12.405V6.87444C0.666656 6.42822 0.813104 6.04962 1.106 5.73863C1.3989 5.42763 1.76932 5.27212 2.21728 5.27212H2.88922V1.55062C2.88922 1.1242 3.04105 0.75916 3.34472 0.455496C3.64838 0.151832 4.01342 0 4.43984 0H13.4076C13.834 0 14.1991 0.151832 14.5028 0.455496C14.8064 0.75916 14.9583 1.1242 14.9583 1.55062V5.27212H15.656C16.0825 5.27212 16.4475 5.42396 16.7512 5.72762C17.0548 6.03128 17.2067 6.39633 17.2067 6.82275V12.405H16.0178L15.6302 13.9815C15.5957 14.1193 15.5354 14.2356 15.4493 14.3304C15.3631 14.4251 15.2548 14.4725 15.1242 14.4725C14.9791 14.4725 14.864 14.4216 14.7789 14.3198C14.6937 14.218 14.6329 14.0966 14.5964 13.9556L14.2088 12.405H3.69038L3.27688 13.9815C3.24242 14.1193 3.18212 14.2356 3.09597 14.3304C3.00982 14.4251 2.90146 14.4725 2.77088 14.4725C2.62579 14.4725 2.51069 14.4216 2.42556 14.3198C2.34043 14.218 2.27962 14.0966 2.24313 13.9556L1.85547 12.405H0.666656Z" fill="#071813"/>
</svg>
