<svg width="24" height="16" viewBox="0 0 24 16" fill="none" xmlns="http://www.w3.org/2000/svg">
<path d="M0 15.6V13.8H12V15.6H0ZM0 9.3V7.5H6V9.3H0ZM0 3V1.2H6V3H0ZM22.74 15.6L17.94 10.8C17.42 11.2 16.86 11.5 16.26 11.7C15.66 11.9 15.04 12 14.4 12C12.74 12 11.325 11.415 10.155 10.245C8.985 9.075 8.4 7.66 8.4 6C8.4 4.34 8.985 2.925 10.155 1.755C11.325 0.585 12.74 0 14.4 0C16.06 0 17.475 0.585 18.645 1.755C19.815 2.925 20.4 4.34 20.4 6C20.4 6.64 20.3 7.26 20.1 7.86C19.9 8.46 19.6 9.02 19.2 9.54L24 14.34L22.74 15.6ZM14.393 10.2C15.5577 10.2 16.55 9.79235 17.37 8.97705C18.19 8.16177 18.6 7.17177 18.6 6.00705C18.6 4.84235 18.1924 3.85 17.3771 3.03C16.5618 2.21 15.5718 1.8 14.4071 1.8C13.2423 1.8 12.25 2.20765 11.43 3.02295C10.61 3.83823 10.2 4.82823 10.2 5.99295C10.2 7.15765 10.6077 8.15 11.423 8.97C12.2382 9.79 13.2282 10.2 14.393 10.2Z" fill="#D9D9D9"/>
</svg>
