<svg width="16" height="16" viewBox="0 0 16 16" fill="none" xmlns="http://www.w3.org/2000/svg">
<path d="M7.95411 7.45697C6.86042 7.45697 5.96558 7.10898 5.2696 6.413C4.57361 5.71701 4.22562 4.82218 4.22562 3.72849C4.22562 2.6348 4.57361 1.73996 5.2696 1.04398C5.96558 0.347992 6.86042 0 7.95411 0C9.0478 0 9.94263 0.347992 10.6386 1.04398C11.3346 1.73996 11.6826 2.6348 11.6826 3.72849C11.6826 4.82218 11.3346 5.71701 10.6386 6.413C9.94263 7.10898 9.0478 7.45697 7.95411 7.45697ZM1.49139 15.4359C1.07712 15.4359 0.724984 15.2909 0.43499 15.0009C0.144997 14.711 0 14.3588 0 13.9445V13.0994C0 12.4697 0.157425 11.9312 0.472275 11.4837C0.787125 11.0363 1.19312 10.6966 1.69025 10.4646C2.80051 9.96749 3.8652 9.59464 4.88432 9.34608C5.90344 9.09751 6.9267 8.97323 7.95411 8.97323C8.98151 8.97323 10.0006 9.10165 11.0115 9.3585C12.0223 9.61535 13.0828 9.98406 14.1931 10.4646C14.7068 10.6966 15.1211 11.0363 15.4359 11.4837C15.7508 11.9312 15.9082 12.4697 15.9082 13.0994V13.9445C15.9082 14.3588 15.7632 14.711 15.4732 15.0009C15.1832 15.2909 14.8311 15.4359 14.4168 15.4359H1.49139Z" fill="#071813"/>
</svg>
