<svg width="18" height="13" viewBox="0 0 18 13" fill="none" xmlns="http://www.w3.org/2000/svg">
<path d="M4.35 8.30625L3.16875 7.125C4.04375 6.25 4.95937 5.59375 5.91563 5.15625C6.87188 4.71875 7.9 4.5 9 4.5C10.1 4.5 11.1281 4.71875 12.0844 5.15625C13.0406 5.59375 13.9563 6.25 14.8313 7.125L13.65 8.30625C12.8875 7.54375 12.1187 7 11.3438 6.675C10.5688 6.35 9.7875 6.1875 9 6.1875C8.2125 6.1875 7.43125 6.35 6.65625 6.675C5.88125 7 5.1125 7.54375 4.35 8.30625ZM1.18125 5.1375L0 3.95625C1.1625 2.76875 2.51562 1.8125 4.05938 1.0875C5.60313 0.3625 7.25 0 9 0C10.75 0 12.3969 0.3625 13.9406 1.0875C15.4844 1.8125 16.8375 2.76875 18 3.95625L16.8188 5.1375C15.7188 4.0875 14.5156 3.25 13.2094 2.625C11.9031 2 10.5 1.6875 9 1.6875C7.5 1.6875 6.09688 2 4.79063 2.625C3.48438 3.25 2.28125 4.0875 1.18125 5.1375ZM9 12.9563L11.775 10.1625C11.4125 9.8 10.9969 9.51563 10.5281 9.30938C10.0594 9.10313 9.55 9 9 9C8.45 9 7.94063 9.10313 7.47188 9.30938C7.00313 9.51563 6.5875 9.8 6.225 10.1625L9 12.9563Z" fill="black"/>
</svg>
